<?xml version="1.0" encoding="UTF-8" standalone="no"?>
<!-- Created with Inkscape (http://www.inkscape.org/) -->

<svg
   xmlns:dc="http://purl.org/dc/elements/1.1/"
   xmlns:cc="http://creativecommons.org/ns#"
   xmlns:rdf="http://www.w3.org/1999/02/22-rdf-syntax-ns#"
   xmlns:svg="http://www.w3.org/2000/svg"
   xmlns="http://www.w3.org/2000/svg"
   xmlns:sodipodi="http://sodipodi.sourceforge.net/DTD/sodipodi-0.dtd"
   xmlns:inkscape="http://www.inkscape.org/namespaces/inkscape"
   width="60"
   height="59.999996"
   id="svg2"
   version="1.1"
   inkscape:version="0.48.3.1 r9886"
   sodipodi:docname="lil-icon.svg"
   inkscape:export-filename="/home/vg/Projects/lex/app/img/icons/lil-icon.png"
   inkscape:export-xdpi="90"
   inkscape:export-ydpi="90">
  <defs
     id="defs4" />
  <sodipodi:namedview
     id="base"
     pagecolor="#ffffff"
     bordercolor="#666666"
     borderopacity="1.0"
     inkscape:pageopacity="0.0"
     inkscape:pageshadow="2"
     inkscape:zoom="4.4375"
     inkscape:cx="69.013192"
     inkscape:cy="36.435228"
     inkscape:document-units="px"
     inkscape:current-layer="layer1"
     showgrid="false"
     fit-margin-top="0"
     fit-margin-left="0"
     fit-margin-right="0"
     fit-margin-bottom="0"
     inkscape:window-width="1280"
     inkscape:window-height="748"
     inkscape:window-x="0"
     inkscape:window-y="31"
     inkscape:window-maximized="1" />
  <metadata
     id="metadata7">
    <rdf:RDF>
      <cc:Work
         rdf:about="">
        <dc:format>image/svg+xml</dc:format>
        <dc:type
           rdf:resource="http://purl.org/dc/dcmitype/StillImage" />
        <dc:title></dc:title>
      </cc:Work>
    </rdf:RDF>
  </metadata>
  <g
     inkscape:label="Layer 1"
     inkscape:groupmode="layer"
     id="layer1"
     transform="translate(-227.10615,-366.61174)">
    <text
       x="368.60202"
       y="287.4072"
       id="text2985-7"
       xml:space="preserve"
       style="font-size:18.59269142px;font-style:italic;font-variant:normal;font-weight:bold;font-stretch:normal;line-height:125%;letter-spacing:0px;word-spacing:0px;fill:#ffffff;fill-opacity:1;stroke:none;font-family:MarVoSym;-inkscape-font-specification:MarVoSym Bold Italic"
       sodipodi:linespacing="125%" />
    <path
       style="font-size:medium;font-style:normal;font-variant:normal;font-weight:normal;font-stretch:normal;text-indent:0;text-align:start;text-decoration:none;line-height:normal;letter-spacing:normal;word-spacing:normal;text-transform:none;direction:ltr;block-progression:tb;writing-mode:lr-tb;text-anchor:start;baseline-shift:baseline;color:#000000;fill:#c2c2c2;fill-opacity:1;stroke:none;stroke-width:50;marker:none;visibility:visible;display:inline;overflow:visible;enable-background:accumulate;font-family:Sans;-inkscape-font-specification:Sans"
       d="m 238.87164,366.6148 a 3.8611444,4.026699 0 0 0 -2.29714,0.91598 c -0.4042,0.34706 -0.74517,0.67189 -1.1148,1.00657 -0.75746,-0.45835 -1.84255,-0.95066 -3.28164,-1.20285 a 3.8611444,4.026699 0 0 0 -2.2682,7.6399 c -0.55616,0.95464 -1.00152,1.90375 -1.23062,3.00965 -0.2586,1.24837 -0.24558,2.8987 0.66598,4.36853 0.50376,0.81228 1.22577,1.38292 1.97864,1.77661 -0.47069,0.64336 -0.91688,1.27773 -1.32713,1.89235 -0.76953,1.1529 -1.41499,2.2167 -1.92073,3.26634 -0.25287,0.52482 -0.47569,1.04067 -0.65633,1.68601 -0.18064,0.64535 -0.49237,1.42684 -0.0386,2.96436 0.22688,0.76876 0.80979,1.73751 1.64083,2.32519 0.83102,0.58768 1.72105,0.7501 2.35988,0.75493 0.23181,0.002 0.42102,-0.0204 0.61289,-0.0403 -1.53675,1.9009 -2.92416,3.75837 -4.05379,5.53616 a 3.8611444,4.026699 0 0 0 5.13481,5.72237 c 1.66856,-0.99435 3.22522,-1.90478 4.7053,-2.75298 -1.4348,1.50377 -3.10016,3.14591 -4.73426,4.83156 -1.9513,2.01285 -3.7747,3.88394 -5.0045,6.30618 -0.61491,1.21112 -1.23141,2.78059 -0.78181,4.81143 0.4496,2.03084 2.20415,3.59631 3.74011,4.20748 a 3.8611444,4.026699 0 0 0 4.35783,-1.20286 c 2.38704,-3.02456 5.23153,-6.27365 8.19446,-9.57252 -0.48946,1.09295 -0.8974,2.14517 -1.09066,3.43242 -0.1956,1.30276 -0.14901,3.31412 1.2837,4.90705 a 3.8611444,4.026699 0 0 0 4.61843,0.80526 c 2.20938,-1.21877 4.26622,-2.78854 6.21582,-4.56985 -0.26089,0.66457 -0.49599,1.31743 -0.68528,1.95275 a 3.8611444,4.026699 0 0 0 3.9621,5.20902 c 3.8526,-0.2912 6.64294,-2.76058 9.02935,-5.48079 0.31243,1.19975 0.85165,2.34696 1.70839,3.33679 a 3.8611444,4.026699 0 0 0 5.22167,0.49826 3.8611444,4.026699 0 0 0 0.98449,0.75493 c 2.22582,1.18501 3.44377,0.46074 4.34818,0.18118 0.44791,-0.13845 0.69914,-0.25019 1.05206,-0.38753 a 3.8611444,4.026699 0 0 0 5.66084,-2.97946 c 0.12491,-0.84184 0.20568,-2.05732 -0.57912,-3.40725 -0.31591,-0.5434 -0.77372,-0.95505 -1.25475,-1.29345 0.49135,-0.83768 0.94709,-1.64273 1.32232,-2.37048 0.62508,-1.21238 1.09315,-2.23866 1.41882,-3.3217 0.16284,-0.54151 0.30758,-1.08788 0.33299,-1.88733 0.0254,-0.79943 -0.0339,-2.19932 -1.28853,-3.47267 -1.00045,-1.01538 -2.32952,-1.24004 -3.28647,-1.18776 0.15787,-0.21053 0.32854,-0.42437 0.4826,-0.63414 1.66032,-2.26063 3.21214,-4.25631 3.77389,-7.2423 a 3.8611444,4.026699 0 0 0 -3.60016,-4.79632 c -1.22767,-0.0618 -2.3489,0.15392 -3.39264,0.53348 1.60123,-2.5461 3.05797,-4.97591 4.11171,-7.08125 0.0335,-0.0669 0.0782,-0.14005 0.111,-0.20635 l -0.005,-0.005 c 0.62193,-1.11997 1.0953,-2.14203 1.37057,-3.27136 0.29301,-1.20215 0.45754,-2.78276 -0.4633,-4.41383 -0.92083,-1.63107 -2.77952,-2.38006 -3.99105,-2.45101 -0.25695,-0.015 -0.49677,-0.008 -0.72872,0.005 0.71246,-0.92247 1.39683,-1.87536 2.03655,-2.86371 a 3.8611444,4.026699 0 0 0 -5.05759,-5.78277 c -1.90527,1.09046 -3.61049,2.44896 -5.21203,3.92564 a 3.8611444,4.026699 0 0 0 -5.41471,-2.5265 c -0.44096,0.22571 -0.85101,0.48445 -1.27405,0.72977 a 3.8611444,4.026699 0 0 0 -0.222,-0.43786 c -0.53874,-0.90559 -1.50345,-1.58671 -2.27784,-1.84204 -0.7744,-0.25532 -1.36057,-0.23332 -1.81456,-0.18621 -0.90798,0.0942 -1.42933,0.32835 -1.95933,0.56368 -1.06001,0.47067 -2.04891,1.08768 -3.20444,1.85713 -1.0178,0.67774 -2.16541,1.50847 -3.3492,2.38558 0.0655,-0.56499 0.0539,-1.25323 -0.23165,-2.07354 -0.39572,-1.13689 -1.53088,-2.24931 -2.52397,-2.62716 -1.98617,-0.7557 -2.92542,-0.14723 -3.79802,0.21641 -0.8726,0.36364 -1.66538,0.843 -2.55293,1.4696 -0.2117,0.14946 -0.44503,0.33643 -0.66598,0.50329 a 3.8611444,4.026699 0 0 0 -3.80284,-2.71775 z"
       id="path3393"
       inkscape:connector-curvature="0" />
    <text
       xml:space="preserve"
       style="font-size:20.15365219px;font-style:normal;font-variant:normal;font-weight:normal;font-stretch:normal;line-height:100%;letter-spacing:0px;word-spacing:0px;fill:#000000;fill-opacity:1;stroke:#000000;stroke-width:0;stroke-linecap:round;stroke-linejoin:miter;stroke-miterlimit:4;stroke-opacity:1;stroke-dasharray:none;font-family:Monospace;-inkscape-font-specification:Monospace"
       x="431.70865"
       y="107.06488"
       id="text3124"
       sodipodi:linespacing="100%"
       transform="matrix(0.7470439,0.6647747,-0.6647747,0.7470439,0,0)"><tspan
         sodipodi:role="line"
         x="431.70865"
         y="107.06488"
         style="font-size:9.0691433px;font-style:normal;font-variant:normal;font-weight:bold;font-stretch:normal;line-height:100%;fill:#000000;fill-opacity:1;stroke:#000000;stroke-width:0;stroke-linecap:round;stroke-linejoin:miter;stroke-miterlimit:4;stroke-opacity:1;stroke-dasharray:none;font-family:Droid Sans Mono;-inkscape-font-specification:Droid Sans Mono Bold"
         id="tspan3128">   A_A</tspan><tspan
         sodipodi:role="line"
         x="431.70865"
         y="116.13403"
         style="font-size:9.0691433px;font-style:normal;font-variant:normal;font-weight:bold;font-stretch:normal;line-height:100%;fill:#000000;fill-opacity:1;stroke:#000000;stroke-width:0;stroke-linecap:round;stroke-linejoin:miter;stroke-miterlimit:4;stroke-opacity:1;stroke-dasharray:none;font-family:Droid Sans Mono;-inkscape-font-specification:Droid Sans Mono Bold"
         id="tspan3132">__(o o)__</tspan><tspan
         sodipodi:role="line"
         x="431.70865"
         y="125.20317"
         style="font-size:9.0691433px;font-style:normal;font-variant:normal;font-weight:bold;font-stretch:normal;line-height:100%;fill:#000000;fill-opacity:1;stroke:#000000;stroke-width:0;stroke-linecap:round;stroke-linejoin:miter;stroke-miterlimit:4;stroke-opacity:1;stroke-dasharray:none;font-family:Droid Sans Mono;-inkscape-font-specification:Droid Sans Mono Bold"
         id="tspan3136">w  .&quot;.  w</tspan><tspan
         sodipodi:role="line"
         x="431.70865"
         y="134.27231"
         style="font-size:9.0691433px;font-style:normal;font-variant:normal;font-weight:bold;font-stretch:normal;line-height:100%;fill:#000000;fill-opacity:1;stroke:#000000;stroke-width:0;stroke-linecap:round;stroke-linejoin:miter;stroke-miterlimit:4;stroke-opacity:1;stroke-dasharray:none;font-family:Droid Sans Mono;-inkscape-font-specification:Droid Sans Mono Bold"
         id="tspan3138"> \ |.| /</tspan><tspan
         sodipodi:role="line"
         x="431.70865"
         y="143.34145"
         style="font-size:9.0691433px;font-style:normal;font-variant:normal;font-weight:bold;font-stretch:normal;line-height:100%;fill:#000000;fill-opacity:1;stroke:#000000;stroke-width:0;stroke-linecap:round;stroke-linejoin:miter;stroke-miterlimit:4;stroke-opacity:1;stroke-dasharray:none;font-family:Droid Sans Mono;-inkscape-font-specification:Droid Sans Mono Bold"
         id="tspan3134">  \W^W/</tspan></text>
  </g>
</svg>
