<?xml version="1.0" encoding="UTF-8" standalone="no"?>
<!-- Created with Inkscape (http://www.inkscape.org/) -->

<svg
   xmlns:dc="http://purl.org/dc/elements/1.1/"
   xmlns:cc="http://creativecommons.org/ns#"
   xmlns:rdf="http://www.w3.org/1999/02/22-rdf-syntax-ns#"
   xmlns:svg="http://www.w3.org/2000/svg"
   xmlns="http://www.w3.org/2000/svg"
   xmlns:sodipodi="http://sodipodi.sourceforge.net/DTD/sodipodi-0.dtd"
   xmlns:inkscape="http://www.inkscape.org/namespaces/inkscape"
   width="234.69"
   height="71.653145"
   id="svg3018"
   version="1.1"
   inkscape:version="0.48.3.1 r9886"
   sodipodi:docname="button.svg">
  <defs
     id="defs3020" />
  <sodipodi:namedview
     id="base"
     pagecolor="#ffffff"
     bordercolor="#666666"
     borderopacity="1.0"
     inkscape:pageopacity="0.0"
     inkscape:pageshadow="2"
     inkscape:zoom="3.10625"
     inkscape:cx="98.866509"
     inkscape:cy="62.826646"
     inkscape:document-units="px"
     inkscape:current-layer="layer1"
     showgrid="false"
     fit-margin-top="0"
     fit-margin-left="0"
     fit-margin-right="0"
     fit-margin-bottom="0"
     inkscape:window-width="1280"
     inkscape:window-height="748"
     inkscape:window-x="0"
     inkscape:window-y="31"
     inkscape:window-maximized="1" />
  <metadata
     id="metadata3023">
    <rdf:RDF>
      <cc:Work
         rdf:about="">
        <dc:format>image/svg+xml</dc:format>
        <dc:type
           rdf:resource="http://purl.org/dc/dcmitype/StillImage" />
        <dc:title></dc:title>
      </cc:Work>
    </rdf:RDF>
  </metadata>
  <g
     inkscape:label="Layer 1"
     inkscape:groupmode="layer"
     id="layer1"
     transform="translate(-115.73346,-50.004822)">
    <rect
       style="fill:#000000;fill-opacity:0.44910183;fill-rule:nonzero;stroke:none"
       id="rect3032"
       width="234.69"
       height="71.653145"
       x="115.73346"
       y="50.004822" />
    <path
       sodipodi:type="arc"
       style="fill:#b3b3b3;fill-opacity:0.38323358;fill-rule:nonzero;stroke:none"
       id="path3802"
       sodipodi:cx="28.812878"
       sodipodi:cy="112.83702"
       sodipodi:rx="3.3802817"
       sodipodi:ry="3.3802817"
       d="m 32.193159,112.83702 c 0,1.86688 -1.513403,3.38028 -3.380281,3.38028 -1.866878,0 -3.380282,-1.5134 -3.380282,-3.38028 0,-1.86688 1.513404,-3.38028 3.380282,-3.38028 1.866878,0 3.380281,1.5134 3.380281,3.38028 z"
       transform="matrix(1.6766561,0,0,1.6766561,80.967952,-126.63048)" />
    <path
       sodipodi:type="arc"
       style="fill:#b3b3b3;fill-opacity:0.38323358;fill-rule:nonzero;stroke:none"
       id="path3802-6"
       sodipodi:cx="28.812878"
       sodipodi:cy="112.83702"
       sodipodi:rx="3.3802817"
       sodipodi:ry="3.3802817"
       d="m 32.193159,112.83702 c 0,1.86688 -1.513403,3.38028 -3.380281,3.38028 -1.866878,0 -3.380282,-1.5134 -3.380282,-3.38028 0,-1.86688 1.513404,-3.38028 3.380282,-3.38028 1.866878,0 3.380281,1.5134 3.380281,3.38028 z"
       transform="matrix(0.80642238,0,0,0.80642238,128.84391,-9.057099)" />
    <path
       sodipodi:type="arc"
       style="fill:#b3b3b3;fill-opacity:0.38323358;fill-rule:nonzero;stroke:none"
       id="path3802-6-2"
       sodipodi:cx="28.812878"
       sodipodi:cy="112.83702"
       sodipodi:rx="3.3802817"
       sodipodi:ry="3.3802817"
       d="m 32.193159,112.83702 c 0,1.86688 -1.513403,3.38028 -3.380281,3.38028 -1.866878,0 -3.380282,-1.5134 -3.380282,-3.38028 0,-1.86688 1.513404,-3.38028 3.380282,-3.38028 1.866878,0 3.380281,1.5134 3.380281,3.38028 z"
       transform="matrix(0.65281812,0,0,0.65281812,145.99072,-15.609233)" />
    <path
       sodipodi:type="arc"
       style="fill:#b3b3b3;fill-opacity:0.38323358;fill-rule:nonzero;stroke:none"
       id="path3802-6-2-4"
       sodipodi:cx="28.812878"
       sodipodi:cy="112.83702"
       sodipodi:rx="3.3802817"
       sodipodi:ry="3.3802817"
       d="m 32.193159,112.83702 c 0,1.86688 -1.513403,3.38028 -3.380281,3.38028 -1.866878,0 -3.380282,-1.5134 -3.380282,-3.38028 0,-1.86688 1.513404,-3.38028 3.380282,-3.38028 1.866878,0 3.380281,1.5134 3.380281,3.38028 z"
       transform="matrix(1.5744437,0,0,1.5744437,101.78236,-97.795239)" />
    <path
       sodipodi:type="arc"
       style="fill:#b3b3b3;fill-opacity:0.38323358;fill-rule:nonzero;stroke:none"
       id="path3802-2"
       sodipodi:cx="28.812878"
       sodipodi:cy="112.83702"
       sodipodi:rx="3.3802817"
       sodipodi:ry="3.3802817"
       d="m 32.193159,112.83702 a 3.3802817,3.3802817 0 1 1 -6.760563,0 3.3802817,3.3802817 0 1 1 6.760563,0 z"
       transform="matrix(0.53903746,1.7224756,-1.7224756,0.53903746,480.45546,-53.757271)" />
    <path
       sodipodi:type="arc"
       style="fill:#b3b3b3;fill-opacity:0.38323358;fill-rule:nonzero;stroke:none"
       id="path3802-6-5"
       sodipodi:cx="28.812878"
       sodipodi:cy="112.83702"
       sodipodi:rx="3.3802817"
       sodipodi:ry="3.3802817"
       d="m 32.193159,112.83702 a 3.3802817,3.3802817 0 1 1 -6.760563,0 3.3802817,3.3802817 0 1 1 6.760563,0 z"
       transform="matrix(0.24084653,0.76961679,-0.76961679,0.24084653,367.45004,20.76752)" />
    <path
       sodipodi:type="arc"
       style="fill:#b3b3b3;fill-opacity:0.38323358;fill-rule:nonzero;stroke:none"
       id="path3802-6-2-1"
       sodipodi:cx="28.812878"
       sodipodi:cy="112.83702"
       sodipodi:rx="3.3802817"
       sodipodi:ry="3.3802817"
       d="m 32.193159,112.83702 a 3.3802817,3.3802817 0 1 1 -6.760563,0 3.3802817,3.3802817 0 1 1 6.760563,0 z"
       transform="matrix(0.194971,0.62302312,-0.62302312,0.194971,378.82421,35.174879)" />
    <path
       sodipodi:type="arc"
       style="fill:#b3b3b3;fill-opacity:0.38323358;fill-rule:nonzero;stroke:none"
       id="path3802-6-2-4-1"
       sodipodi:cx="28.812878"
       sodipodi:cy="112.83702"
       sodipodi:rx="3.3802817"
       sodipodi:ry="3.3802817"
       d="m 32.193159,112.83702 c 0,1.86688 -1.513403,3.38028 -3.380281,3.38028 -1.866878,0 -3.380282,-1.5134 -3.380282,-3.38028 0,-1.86688 1.513404,-3.38028 3.380282,-3.38028 1.866878,0 3.380281,1.5134 3.380281,3.38028 z"
       transform="matrix(0.47022419,1.5025852,-1.5025852,0.47022419,377.08147,8.287994)" />
    <path
       sodipodi:type="arc"
       style="fill:#b3b3b3;fill-opacity:0.38323358;fill-rule:nonzero;stroke:none"
       id="path3802-2-4"
       sodipodi:cx="28.812878"
       sodipodi:cy="112.83702"
       sodipodi:rx="3.3802817"
       sodipodi:ry="3.3802817"
       d="m 32.193159,112.83702 a 3.3802817,3.3802817 0 1 1 -6.760563,0 3.3802817,3.3802817 0 1 1 6.760563,0 z"
       transform="matrix(-1.4136464,1.1220907,-1.1220907,-1.4136464,344.38946,221.57196)" />
    <path
       sodipodi:type="arc"
       style="fill:#b3b3b3;fill-opacity:0.38323358;fill-rule:nonzero;stroke:none"
       id="path3802-6-5-1"
       sodipodi:cx="28.812878"
       sodipodi:cy="112.83702"
       sodipodi:rx="3.3802817"
       sodipodi:ry="3.3802817"
       d="m 32.193159,112.83702 a 3.3802817,3.3802817 0 1 1 -6.760563,0 3.3802817,3.3802817 0 1 1 6.760563,0 z"
       transform="matrix(-0.63162925,0.50135969,-0.50135969,-0.63162925,349.22414,129.13419)" />
    <path
       sodipodi:type="arc"
       style="fill:#b3b3b3;fill-opacity:0.38323358;fill-rule:nonzero;stroke:none"
       id="path3802-6-2-1-1"
       sodipodi:cx="28.812878"
       sodipodi:cy="112.83702"
       sodipodi:rx="3.3802817"
       sodipodi:ry="3.3802817"
       d="m 32.193159,112.83702 c 0,1.86688 -1.513403,3.38028 -3.380281,3.38028 -1.866878,0 -3.380282,-1.5134 -3.380282,-3.38028 0,-1.86688 1.513404,-3.38028 3.380282,-3.38028 1.866878,0 3.380281,1.5134 3.380281,3.38028 z"
       transform="matrix(-0.51131892,0.4058626,-0.4058626,-0.51131892,367.87548,159.09146)" />
    <path
       sodipodi:type="arc"
       style="fill:#b3b3b3;fill-opacity:0.38323358;fill-rule:nonzero;stroke:none"
       id="path3802-6-2-4-1-6"
       sodipodi:cx="28.812878"
       sodipodi:cy="112.83702"
       sodipodi:rx="3.3802817"
       sodipodi:ry="3.3802817"
       d="m 32.193159,112.83702 a 3.3802817,3.3802817 0 1 1 -6.760563,0 3.3802817,3.3802817 0 1 1 6.760563,0 z"
       transform="matrix(-2.2557786,1.7905385,-1.7905385,-2.2557786,535.35058,294.9278)" />
    <path
       sodipodi:type="arc"
       style="fill:#b3b3b3;fill-opacity:0.38323358;fill-rule:nonzero;stroke:none"
       id="path3802-6-5-1-8"
       sodipodi:cx="28.812878"
       sodipodi:cy="112.83702"
       sodipodi:rx="3.3802817"
       sodipodi:ry="3.3802817"
       d="m 32.193159,112.83702 c 0,1.86688 -1.513403,3.38028 -3.380281,3.38028 -1.866878,0 -3.380282,-1.5134 -3.380282,-3.38028 0,-1.86688 1.513404,-3.38028 3.380282,-3.38028 1.866878,0 3.380281,1.5134 3.380281,3.38028 z"
       transform="matrix(-0.63162925,0.50135969,-0.50135969,-0.63162925,418.70413,112.02263)" />
    <text
       xml:space="preserve"
       style="font-size:9.00644684px;font-style:normal;font-variant:normal;font-weight:normal;font-stretch:normal;line-height:125%;letter-spacing:0px;word-spacing:0px;fill:#cecece;fill-opacity:1;stroke:none;font-family:Monospace;-inkscape-font-specification:Monospace"
       x="126.64671"
       y="64.231773"
       id="text3949"
       sodipodi:linespacing="125%"><tspan
         sodipodi:role="line"
         id="tspan3951"
         x="126.64671"
         y="64.231773">a</tspan></text>
    <path
       sodipodi:type="arc"
       style="fill:#b3b3b3;fill-opacity:0.38323358;fill-rule:nonzero;stroke:none"
       id="path3802-8"
       sodipodi:cx="28.812878"
       sodipodi:cy="112.83702"
       sodipodi:rx="3.3802817"
       sodipodi:ry="3.3802817"
       d="m 32.193159,112.83702 a 3.3802817,3.3802817 0 1 1 -6.760563,0 3.3802817,3.3802817 0 1 1 6.760563,0 z"
       transform="matrix(3.1104863,0,0,3.1104863,205.49412,-286.04027)" />
    <text
       xml:space="preserve"
       style="font-size:16.70851326px;font-style:normal;font-variant:normal;font-weight:normal;font-stretch:normal;line-height:125%;letter-spacing:0px;word-spacing:0px;fill:#cecece;fill-opacity:1;stroke:none;font-family:Monospace;-inkscape-font-specification:Monospace"
       x="289.25461"
       y="70.994209"
       id="text3949-3"
       sodipodi:linespacing="125%"><tspan
         sodipodi:role="line"
         id="tspan3951-6"
         x="289.25461"
         y="70.994209">đ</tspan></text>
    <text
       xml:space="preserve"
       style="font-size:9.18463898px;font-style:normal;font-variant:normal;font-weight:normal;font-stretch:normal;line-height:125%;letter-spacing:0px;word-spacing:0px;fill:#cecece;fill-opacity:1;stroke:none;font-family:Monospace;-inkscape-font-specification:Monospace"
       x="143.69577"
       y="82.47612"
       id="text3949-3-5"
       sodipodi:linespacing="125%"><tspan
         sodipodi:role="line"
         id="tspan3951-6-0"
         x="143.69577"
         y="82.47612">¢</tspan></text>
    <path
       sodipodi:type="arc"
       style="fill:#b3b3b3;fill-opacity:0.38323358;fill-rule:nonzero;stroke:none"
       id="path3802-6-2-4-1-8"
       sodipodi:cx="28.812878"
       sodipodi:cy="112.83702"
       sodipodi:rx="3.3802817"
       sodipodi:ry="3.3802817"
       d="m 32.193159,112.83702 c 0,1.86688 -1.513403,3.38028 -3.380281,3.38028 -1.866878,0 -3.380282,-1.5134 -3.380282,-3.38028 0,-1.86688 1.513404,-3.38028 3.380282,-3.38028 1.866878,0 3.380281,1.5134 3.380281,3.38028 z"
       transform="matrix(0.74540382,2.0779092,-2.3819122,0.65026806,458.56162,-60.91333)" />
    <path
       sodipodi:type="arc"
       style="fill:#b3b3b3;fill-opacity:0.38323358;fill-rule:nonzero;stroke:none"
       id="path3802-6-2-8"
       sodipodi:cx="28.812878"
       sodipodi:cy="112.83702"
       sodipodi:rx="3.3802817"
       sodipodi:ry="3.3802817"
       d="m 32.193159,112.83702 c 0,1.86688 -1.513403,3.38028 -3.380281,3.38028 -1.866878,0 -3.380282,-1.5134 -3.380282,-3.38028 0,-1.86688 1.513404,-3.38028 3.380282,-3.38028 1.866878,0 3.380281,1.5134 3.380281,3.38028 z"
       transform="matrix(0.65281812,0,0,0.65281812,199.21135,-5.7439457)" />
    <path
       sodipodi:type="arc"
       style="fill:#b3b3b3;fill-opacity:0.38323358;fill-rule:nonzero;stroke:none"
       id="path3802-6-2-8-2"
       sodipodi:cx="28.812878"
       sodipodi:cy="112.83702"
       sodipodi:rx="3.3802817"
       sodipodi:ry="3.3802817"
       d="m 32.193159,112.83702 c 0,1.86688 -1.513403,3.38028 -3.380281,3.38028 -1.866878,0 -3.380282,-1.5134 -3.380282,-3.38028 0,-1.86688 1.513404,-3.38028 3.380282,-3.38028 1.866878,0 3.380281,1.5134 3.380281,3.38028 z"
       transform="matrix(1.4976416,0,0,1.4976416,163.7062,-92.504084)" />
    <path
       sodipodi:type="arc"
       style="fill:#b3b3b3;fill-opacity:0.38323358;fill-rule:nonzero;stroke:none"
       id="path3802-26"
       sodipodi:cx="28.812878"
       sodipodi:cy="112.83702"
       sodipodi:rx="3.3802817"
       sodipodi:ry="3.3802817"
       d="m 32.193159,112.83702 c 0,1.86688 -1.513403,3.38028 -3.380281,3.38028 -1.866878,0 -3.380282,-1.5134 -3.380282,-3.38028 0,-1.86688 1.513404,-3.38028 3.380282,-3.38028 1.866878,0 3.380281,1.5134 3.380281,3.38028 z"
       transform="matrix(1.6766561,0,0,1.6766561,73.481163,-125.1611)" />
    <text
       xml:space="preserve"
       style="font-size:9.00644684px;font-style:normal;font-variant:normal;font-weight:normal;font-stretch:normal;line-height:125%;letter-spacing:0px;word-spacing:0px;fill:#cecece;fill-opacity:1;stroke:none;font-family:Monospace;-inkscape-font-specification:Monospace"
       x="119.15993"
       y="65.701141"
       id="text3949-5"
       sodipodi:linespacing="125%"><tspan
         sodipodi:role="line"
         id="tspan3951-5"
         x="119.15993"
         y="65.701141">ŋ</tspan></text>
    <path
       sodipodi:type="arc"
       style="fill:#b3b3b3;fill-opacity:0.38323358;fill-rule:nonzero;stroke:none"
       id="path3802-26-3"
       sodipodi:cx="28.812878"
       sodipodi:cy="112.83702"
       sodipodi:rx="3.3802817"
       sodipodi:ry="3.3802817"
       d="m 32.193159,112.83702 c 0,1.86688 -1.513403,3.38028 -3.380281,3.38028 -1.866878,0 -3.380282,-1.5134 -3.380282,-3.38028 0,-1.86688 1.513404,-3.38028 3.380282,-3.38028 1.866878,0 3.380281,1.5134 3.380281,3.38028 z"
       transform="matrix(1.6766561,0,0,1.6766561,76.000083,-132.43798)" />
    <text
       xml:space="preserve"
       style="font-size:9.00644684px;font-style:normal;font-variant:normal;font-weight:normal;font-stretch:normal;line-height:125%;letter-spacing:0px;word-spacing:0px;fill:#cecece;fill-opacity:1;stroke:none;font-family:Monospace;-inkscape-font-specification:Monospace"
       x="121.67884"
       y="58.424263"
       id="text3949-5-4"
       sodipodi:linespacing="125%"><tspan
         sodipodi:role="line"
         id="tspan3951-5-0"
         x="121.67884"
         y="58.424263">ł</tspan></text>
    <text
       xml:space="preserve"
       style="font-size:9.18463898px;font-style:normal;font-variant:normal;font-weight:normal;font-stretch:normal;line-height:125%;letter-spacing:0px;word-spacing:0px;fill:#cecece;fill-opacity:1;stroke:none;font-family:Monospace;-inkscape-font-specification:Monospace"
       x="203.4816"
       y="79.25412"
       id="text3949-3-5-6"
       sodipodi:linespacing="125%"><tspan
         sodipodi:role="line"
         id="tspan3951-6-0-8"
         x="203.4816"
         y="79.25412">ø</tspan></text>
    <text
       xml:space="preserve"
       style="font-size:11.95357513px;font-style:normal;font-variant:normal;font-weight:normal;font-stretch:normal;line-height:125%;letter-spacing:0px;word-spacing:0px;fill:#cecece;fill-opacity:1;stroke:none;font-family:Monospace;-inkscape-font-specification:Monospace"
       x="209.59518"
       y="75.565613"
       id="text3949-3-5-6-9"
       sodipodi:linespacing="125%"><tspan
         sodipodi:role="line"
         id="tspan3951-6-0-8-5"
         x="209.59518"
         y="75.565613">þ</tspan></text>
    <path
       sodipodi:type="arc"
       style="fill:#b3b3b3;fill-opacity:0.38323358;fill-rule:nonzero;stroke:none"
       id="path3802-6-2-2"
       sodipodi:cx="28.812878"
       sodipodi:cy="112.83702"
       sodipodi:rx="3.3802817"
       sodipodi:ry="3.3802817"
       d="m 32.193159,112.83702 c 0,1.86688 -1.513403,3.38028 -3.380281,3.38028 -1.866878,0 -3.380282,-1.5134 -3.380282,-3.38028 0,-1.86688 1.513404,-3.38028 3.380282,-3.38028 1.866878,0 3.380281,1.5134 3.380281,3.38028 z"
       transform="matrix(0.65281812,0,0,0.65281812,161.30788,3.0828907)" />
    <path
       sodipodi:type="arc"
       style="fill:#b3b3b3;fill-opacity:0.38323358;fill-rule:nonzero;stroke:none"
       id="path3802-6-2-4-1-5"
       sodipodi:cx="28.812878"
       sodipodi:cy="112.83702"
       sodipodi:rx="3.3802817"
       sodipodi:ry="3.3802817"
       d="m 32.193159,112.83702 c 0,1.86688 -1.513403,3.38028 -3.380281,3.38028 -1.866878,0 -3.380282,-1.5134 -3.380282,-3.38028 0,-1.86688 1.513404,-3.38028 3.380282,-3.38028 1.866878,0 3.380281,1.5134 3.380281,3.38028 z"
       transform="matrix(0.47022419,1.5025852,-1.5025852,0.47022419,409.5866,-30.511296)" />
    <text
       xml:space="preserve"
       style="font-size:9.18463898px;font-style:normal;font-variant:normal;font-weight:normal;font-stretch:normal;line-height:125%;letter-spacing:0px;word-spacing:0px;fill:#cecece;fill-opacity:1;stroke:none;font-family:Monospace;-inkscape-font-specification:Monospace"
       x="251.10959"
       y="68.862885"
       id="text3949-3-5-6-7"
       sodipodi:linespacing="125%"><tspan
         sodipodi:role="line"
         id="tspan3951-6-0-8-9"
         x="251.10959"
         y="68.862885">e</tspan></text>
    <path
       sodipodi:type="arc"
       style="fill:#b3b3b3;fill-opacity:0.38323358;fill-rule:nonzero;stroke:none"
       id="path3802-2-6"
       sodipodi:cx="28.812878"
       sodipodi:cy="112.83702"
       sodipodi:rx="3.3802817"
       sodipodi:ry="3.3802817"
       d="m 32.193159,112.83702 c 0,1.86688 -1.513403,3.38028 -3.380281,3.38028 -1.866878,0 -3.380282,-1.5134 -3.380282,-3.38028 0,-1.86688 1.513404,-3.38028 3.380282,-3.38028 1.866878,0 3.380281,1.5134 3.380281,3.38028 z"
       transform="matrix(0.53903746,1.7224756,-1.7224756,0.53903746,313.00353,-31.429206)" />
    <path
       sodipodi:type="arc"
       style="fill:#b3b3b3;fill-opacity:0.38323358;fill-rule:nonzero;stroke:none"
       id="path3802-6-5-13"
       sodipodi:cx="28.812878"
       sodipodi:cy="112.83702"
       sodipodi:rx="3.3802817"
       sodipodi:ry="3.3802817"
       d="m 32.193159,112.83702 c 0,1.86688 -1.513403,3.38028 -3.380281,3.38028 -1.866878,0 -3.380282,-1.5134 -3.380282,-3.38028 0,-1.86688 1.513404,-3.38028 3.380282,-3.38028 1.866878,0 3.380281,1.5134 3.380281,3.38028 z"
       transform="matrix(0.24084653,0.76961679,-0.76961679,0.24084653,199.99811,45.095589)" />
    <path
       sodipodi:type="arc"
       style="fill:#b3b3b3;fill-opacity:0.38323358;fill-rule:nonzero;stroke:none"
       id="path3802-8-8"
       sodipodi:cx="28.812878"
       sodipodi:cy="112.83702"
       sodipodi:rx="3.3802817"
       sodipodi:ry="3.3802817"
       d="m 32.193159,112.83702 c 0,1.86688 -1.513403,3.38028 -3.380281,3.38028 -1.866878,0 -3.380282,-1.5134 -3.380282,-3.38028 0,-1.86688 1.513404,-3.38028 3.380282,-3.38028 1.866878,0 3.380281,1.5134 3.380281,3.38028 z"
       transform="matrix(3.1104863,0,0,3.1104863,38.04219,-261.71221)" />
    <text
       xml:space="preserve"
       style="font-size:16.70851326px;font-style:normal;font-variant:normal;font-weight:normal;font-stretch:normal;line-height:125%;letter-spacing:0px;word-spacing:0px;fill:#cecece;fill-opacity:1;stroke:none;font-family:Monospace;-inkscape-font-specification:Monospace"
       x="121.8027"
       y="95.322273"
       id="text3949-3-2"
       sodipodi:linespacing="125%"><tspan
         sodipodi:role="line"
         id="tspan3951-6-08"
         x="121.8027"
         y="95.322273">đ</tspan></text>
    <path
       sodipodi:type="arc"
       style="fill:#b3b3b3;fill-opacity:0.38323358;fill-rule:nonzero;stroke:none"
       id="path3802-2-4-7"
       sodipodi:cx="28.812878"
       sodipodi:cy="112.83702"
       sodipodi:rx="3.3802817"
       sodipodi:ry="3.3802817"
       d="m 32.193159,112.83702 a 3.3802817,3.3802817 0 1 1 -6.760563,0 3.3802817,3.3802817 0 1 1 6.760563,0 z"
       transform="matrix(-1.4136464,1.1220907,-1.1220907,-1.4136464,488.47041,224.37215)" />
    <path
       sodipodi:type="arc"
       style="fill:#b3b3b3;fill-opacity:0.38323358;fill-rule:nonzero;stroke:none"
       id="path3802-6-2-4-1-8-7"
       sodipodi:cx="28.812878"
       sodipodi:cy="112.83702"
       sodipodi:rx="3.3802817"
       sodipodi:ry="3.3802817"
       d="m 32.193159,112.83702 a 3.3802817,3.3802817 0 1 1 -6.760563,0 3.3802817,3.3802817 0 1 1 6.760563,0 z"
       transform="matrix(0.74540382,2.0779092,-2.3819122,0.65026806,585.73844,-52.433633)" />
    <path
       sodipodi:type="arc"
       style="fill:#b3b3b3;fill-opacity:0.38323358;fill-rule:nonzero;stroke:none"
       id="path3802-6-2-8-4"
       sodipodi:cx="28.812878"
       sodipodi:cy="112.83702"
       sodipodi:rx="3.3802817"
       sodipodi:ry="3.3802817"
       d="m 32.193159,112.83702 a 3.3802817,3.3802817 0 1 1 -6.760563,0 3.3802817,3.3802817 0 1 1 6.760563,0 z"
       transform="matrix(0.65281812,0,0,0.65281812,326.38817,2.7357467)" />
    <path
       sodipodi:type="arc"
       style="fill:#b3b3b3;fill-opacity:0.38323358;fill-rule:nonzero;stroke:none"
       id="path3802-6-2-8-2-4"
       sodipodi:cx="28.812878"
       sodipodi:cy="112.83702"
       sodipodi:rx="3.3802817"
       sodipodi:ry="3.3802817"
       d="m 32.193159,112.83702 a 3.3802817,3.3802817 0 1 1 -6.760563,0 3.3802817,3.3802817 0 1 1 6.760563,0 z"
       transform="matrix(1.4976416,0,0,1.4976416,290.88301,-84.024395)" />
    <text
       xml:space="preserve"
       style="font-size:9.18463898px;font-style:normal;font-variant:normal;font-weight:normal;font-stretch:normal;line-height:125%;letter-spacing:0px;word-spacing:0px;fill:#cecece;fill-opacity:1;stroke:none;font-family:Monospace;-inkscape-font-specification:Monospace"
       x="330.65842"
       y="87.73381"
       id="text3949-3-5-6-2"
       sodipodi:linespacing="125%"><tspan
         sodipodi:role="line"
         id="tspan3951-6-0-8-1"
         x="330.65842"
         y="87.73381">ø</tspan></text>
    <text
       xml:space="preserve"
       style="font-size:11.95357513px;font-style:normal;font-variant:normal;font-weight:normal;font-stretch:normal;line-height:125%;letter-spacing:0px;word-spacing:0px;fill:#cecece;fill-opacity:1;stroke:none;font-family:Monospace;-inkscape-font-specification:Monospace"
       x="336.772"
       y="84.045303"
       id="text3949-3-5-6-9-6"
       sodipodi:linespacing="125%"><tspan
         sodipodi:role="line"
         id="tspan3951-6-0-8-5-9"
         x="336.772"
         y="84.045303">þ</tspan></text>
  </g>
</svg>
