<?xml version="1.0" encoding="UTF-8" standalone="no"?>
<!-- Created with Inkscape (http://www.inkscape.org/) -->

<svg
   xmlns:dc="http://purl.org/dc/elements/1.1/"
   xmlns:cc="http://creativecommons.org/ns#"
   xmlns:rdf="http://www.w3.org/1999/02/22-rdf-syntax-ns#"
   xmlns:svg="http://www.w3.org/2000/svg"
   xmlns="http://www.w3.org/2000/svg"
   xmlns:sodipodi="http://sodipodi.sourceforge.net/DTD/sodipodi-0.dtd"
   xmlns:inkscape="http://www.inkscape.org/namespaces/inkscape"
   width="234.69"
   height="71.653145"
   id="svg3018"
   version="1.1"
   inkscape:version="0.48.3.1 r9886"
   sodipodi:docname="button.svg">
  <defs
     id="defs3020" />
  <sodipodi:namedview
     id="base"
     pagecolor="#ffffff"
     bordercolor="#666666"
     borderopacity="1.0"
     inkscape:pageopacity="0.0"
     inkscape:pageshadow="2"
     inkscape:zoom="3.10625"
     inkscape:cx="108.30534"
     inkscape:cy="62.826646"
     inkscape:document-units="px"
     inkscape:current-layer="layer1"
     showgrid="false"
     fit-margin-top="0"
     fit-margin-left="0"
     fit-margin-right="0"
     fit-margin-bottom="0"
     inkscape:window-width="1280"
     inkscape:window-height="748"
     inkscape:window-x="0"
     inkscape:window-y="31"
     inkscape:window-maximized="1" />
  <metadata
     id="metadata3023">
    <rdf:RDF>
      <cc:Work
         rdf:about="">
        <dc:format>image/svg+xml</dc:format>
        <dc:type
           rdf:resource="http://purl.org/dc/dcmitype/StillImage" />
        <dc:title></dc:title>
      </cc:Work>
    </rdf:RDF>
  </metadata>
  <g
     inkscape:label="Layer 1"
     inkscape:groupmode="layer"
     id="layer1"
     transform="translate(-115.73346,-50.004822)">
    <rect
       style="fill:#9bb1ef;fill-opacity:1;fill-rule:nonzero;stroke:none"
       id="rect3032"
       width="234.69"
       height="71.653145"
       x="115.73346"
       y="50.004822" />
    <g
       id="g4422"
       style="fill:#ffffff;fill-opacity:0.37724552">
      <path
         transform="matrix(1.6766561,0,0,1.6766561,80.967952,-126.63048)"
         d="m 32.193159,112.83702 a 3.3802817,3.3802817 0 1 1 -6.760563,0 3.3802817,3.3802817 0 1 1 6.760563,0 z"
         sodipodi:ry="3.3802817"
         sodipodi:rx="3.3802817"
         sodipodi:cy="112.83702"
         sodipodi:cx="28.812878"
         id="path3802"
         style="fill:#ffffff;fill-opacity:0.37724552;fill-rule:nonzero;stroke:none"
         sodipodi:type="arc" />
      <path
         transform="matrix(0.80642238,0,0,0.80642238,128.84391,-9.057099)"
         d="m 32.193159,112.83702 a 3.3802817,3.3802817 0 1 1 -6.760563,0 3.3802817,3.3802817 0 1 1 6.760563,0 z"
         sodipodi:ry="3.3802817"
         sodipodi:rx="3.3802817"
         sodipodi:cy="112.83702"
         sodipodi:cx="28.812878"
         id="path3802-6"
         style="fill:#ffffff;fill-opacity:0.37724552;fill-rule:nonzero;stroke:none"
         sodipodi:type="arc" />
      <path
         transform="matrix(0.65281812,0,0,0.65281812,145.99072,-15.609233)"
         d="m 32.193159,112.83702 a 3.3802817,3.3802817 0 1 1 -6.760563,0 3.3802817,3.3802817 0 1 1 6.760563,0 z"
         sodipodi:ry="3.3802817"
         sodipodi:rx="3.3802817"
         sodipodi:cy="112.83702"
         sodipodi:cx="28.812878"
         id="path3802-6-2"
         style="fill:#ffffff;fill-opacity:0.37724552;fill-rule:nonzero;stroke:none"
         sodipodi:type="arc" />
      <path
         transform="matrix(1.5744437,0,0,1.5744437,101.78236,-97.795239)"
         d="m 32.193159,112.83702 a 3.3802817,3.3802817 0 1 1 -6.760563,0 3.3802817,3.3802817 0 1 1 6.760563,0 z"
         sodipodi:ry="3.3802817"
         sodipodi:rx="3.3802817"
         sodipodi:cy="112.83702"
         sodipodi:cx="28.812878"
         id="path3802-6-2-4"
         style="fill:#ffffff;fill-opacity:0.37724552;fill-rule:nonzero;stroke:none"
         sodipodi:type="arc" />
      <path
         transform="matrix(0.53903746,1.7224756,-1.7224756,0.53903746,480.45546,-53.757271)"
         d="m 32.193159,112.83702 a 3.3802817,3.3802817 0 1 1 -6.760563,0 3.3802817,3.3802817 0 1 1 6.760563,0 z"
         sodipodi:ry="3.3802817"
         sodipodi:rx="3.3802817"
         sodipodi:cy="112.83702"
         sodipodi:cx="28.812878"
         id="path3802-2"
         style="fill:#ffffff;fill-opacity:0.37724552;fill-rule:nonzero;stroke:none"
         sodipodi:type="arc" />
      <path
         transform="matrix(0.24084653,0.76961679,-0.76961679,0.24084653,367.45004,20.76752)"
         d="m 32.193159,112.83702 a 3.3802817,3.3802817 0 1 1 -6.760563,0 3.3802817,3.3802817 0 1 1 6.760563,0 z"
         sodipodi:ry="3.3802817"
         sodipodi:rx="3.3802817"
         sodipodi:cy="112.83702"
         sodipodi:cx="28.812878"
         id="path3802-6-5"
         style="fill:#ffffff;fill-opacity:0.37724552;fill-rule:nonzero;stroke:none"
         sodipodi:type="arc" />
      <path
         transform="matrix(0.194971,0.62302312,-0.62302312,0.194971,378.82421,35.174879)"
         d="m 32.193159,112.83702 a 3.3802817,3.3802817 0 1 1 -6.760563,0 3.3802817,3.3802817 0 1 1 6.760563,0 z"
         sodipodi:ry="3.3802817"
         sodipodi:rx="3.3802817"
         sodipodi:cy="112.83702"
         sodipodi:cx="28.812878"
         id="path3802-6-2-1"
         style="fill:#ffffff;fill-opacity:0.37724552;fill-rule:nonzero;stroke:none"
         sodipodi:type="arc" />
      <path
         transform="matrix(0.47022419,1.5025852,-1.5025852,0.47022419,377.08147,8.287994)"
         d="m 32.193159,112.83702 a 3.3802817,3.3802817 0 1 1 -6.760563,0 3.3802817,3.3802817 0 1 1 6.760563,0 z"
         sodipodi:ry="3.3802817"
         sodipodi:rx="3.3802817"
         sodipodi:cy="112.83702"
         sodipodi:cx="28.812878"
         id="path3802-6-2-4-1"
         style="fill:#ffffff;fill-opacity:0.37724552;fill-rule:nonzero;stroke:none"
         sodipodi:type="arc" />
      <path
         transform="matrix(-1.4136464,1.1220907,-1.1220907,-1.4136464,344.38946,221.57196)"
         d="m 32.193159,112.83702 a 3.3802817,3.3802817 0 1 1 -6.760563,0 3.3802817,3.3802817 0 1 1 6.760563,0 z"
         sodipodi:ry="3.3802817"
         sodipodi:rx="3.3802817"
         sodipodi:cy="112.83702"
         sodipodi:cx="28.812878"
         id="path3802-2-4"
         style="fill:#ffffff;fill-opacity:0.37724552;fill-rule:nonzero;stroke:none"
         sodipodi:type="arc" />
      <path
         transform="matrix(-0.63162925,0.50135969,-0.50135969,-0.63162925,349.22414,129.13419)"
         d="m 32.193159,112.83702 a 3.3802817,3.3802817 0 1 1 -6.760563,0 3.3802817,3.3802817 0 1 1 6.760563,0 z"
         sodipodi:ry="3.3802817"
         sodipodi:rx="3.3802817"
         sodipodi:cy="112.83702"
         sodipodi:cx="28.812878"
         id="path3802-6-5-1"
         style="fill:#ffffff;fill-opacity:0.37724552;fill-rule:nonzero;stroke:none"
         sodipodi:type="arc" />
      <path
         transform="matrix(-0.51131892,0.4058626,-0.4058626,-0.51131892,367.87548,159.09146)"
         d="m 32.193159,112.83702 a 3.3802817,3.3802817 0 1 1 -6.760563,0 3.3802817,3.3802817 0 1 1 6.760563,0 z"
         sodipodi:ry="3.3802817"
         sodipodi:rx="3.3802817"
         sodipodi:cy="112.83702"
         sodipodi:cx="28.812878"
         id="path3802-6-2-1-1"
         style="fill:#ffffff;fill-opacity:0.37724552;fill-rule:nonzero;stroke:none"
         sodipodi:type="arc" />
      <path
         transform="matrix(-2.2557786,1.7905385,-1.7905385,-2.2557786,535.35058,294.9278)"
         d="m 32.193159,112.83702 a 3.3802817,3.3802817 0 1 1 -6.760563,0 3.3802817,3.3802817 0 1 1 6.760563,0 z"
         sodipodi:ry="3.3802817"
         sodipodi:rx="3.3802817"
         sodipodi:cy="112.83702"
         sodipodi:cx="28.812878"
         id="path3802-6-2-4-1-6"
         style="fill:#ffffff;fill-opacity:0.37724552;fill-rule:nonzero;stroke:none"
         sodipodi:type="arc" />
      <path
         transform="matrix(-0.63162925,0.50135969,-0.50135969,-0.63162925,418.70413,112.02263)"
         d="m 32.193159,112.83702 a 3.3802817,3.3802817 0 1 1 -6.760563,0 3.3802817,3.3802817 0 1 1 6.760563,0 z"
         sodipodi:ry="3.3802817"
         sodipodi:rx="3.3802817"
         sodipodi:cy="112.83702"
         sodipodi:cx="28.812878"
         id="path3802-6-5-1-8"
         style="fill:#ffffff;fill-opacity:0.37724552;fill-rule:nonzero;stroke:none"
         sodipodi:type="arc" />
      <path
         transform="matrix(3.1104863,0,0,3.1104863,205.49412,-286.04027)"
         d="m 32.193159,112.83702 a 3.3802817,3.3802817 0 1 1 -6.760563,0 3.3802817,3.3802817 0 1 1 6.760563,0 z"
         sodipodi:ry="3.3802817"
         sodipodi:rx="3.3802817"
         sodipodi:cy="112.83702"
         sodipodi:cx="28.812878"
         id="path3802-8"
         style="fill:#ffffff;fill-opacity:0.37724552;fill-rule:nonzero;stroke:none"
         sodipodi:type="arc" />
      <path
         transform="matrix(0.74540382,2.0779092,-2.3819122,0.65026806,458.56162,-60.91333)"
         d="m 32.193159,112.83702 a 3.3802817,3.3802817 0 1 1 -6.760563,0 3.3802817,3.3802817 0 1 1 6.760563,0 z"
         sodipodi:ry="3.3802817"
         sodipodi:rx="3.3802817"
         sodipodi:cy="112.83702"
         sodipodi:cx="28.812878"
         id="path3802-6-2-4-1-8"
         style="fill:#ffffff;fill-opacity:0.37724552;fill-rule:nonzero;stroke:none"
         sodipodi:type="arc" />
      <path
         transform="matrix(0.65281812,0,0,0.65281812,199.21135,-5.7439457)"
         d="m 32.193159,112.83702 a 3.3802817,3.3802817 0 1 1 -6.760563,0 3.3802817,3.3802817 0 1 1 6.760563,0 z"
         sodipodi:ry="3.3802817"
         sodipodi:rx="3.3802817"
         sodipodi:cy="112.83702"
         sodipodi:cx="28.812878"
         id="path3802-6-2-8"
         style="fill:#ffffff;fill-opacity:0.37724552;fill-rule:nonzero;stroke:none"
         sodipodi:type="arc" />
      <path
         transform="matrix(1.4976416,0,0,1.4976416,163.7062,-92.504084)"
         d="m 32.193159,112.83702 a 3.3802817,3.3802817 0 1 1 -6.760563,0 3.3802817,3.3802817 0 1 1 6.760563,0 z"
         sodipodi:ry="3.3802817"
         sodipodi:rx="3.3802817"
         sodipodi:cy="112.83702"
         sodipodi:cx="28.812878"
         id="path3802-6-2-8-2"
         style="fill:#ffffff;fill-opacity:0.37724552;fill-rule:nonzero;stroke:none"
         sodipodi:type="arc" />
      <path
         transform="matrix(1.6766561,0,0,1.6766561,73.481163,-125.1611)"
         d="m 32.193159,112.83702 a 3.3802817,3.3802817 0 1 1 -6.760563,0 3.3802817,3.3802817 0 1 1 6.760563,0 z"
         sodipodi:ry="3.3802817"
         sodipodi:rx="3.3802817"
         sodipodi:cy="112.83702"
         sodipodi:cx="28.812878"
         id="path3802-26"
         style="fill:#ffffff;fill-opacity:0.37724552;fill-rule:nonzero;stroke:none"
         sodipodi:type="arc" />
      <path
         transform="matrix(1.6766561,0,0,1.6766561,76.000083,-132.43798)"
         d="m 32.193159,112.83702 a 3.3802817,3.3802817 0 1 1 -6.760563,0 3.3802817,3.3802817 0 1 1 6.760563,0 z"
         sodipodi:ry="3.3802817"
         sodipodi:rx="3.3802817"
         sodipodi:cy="112.83702"
         sodipodi:cx="28.812878"
         id="path3802-26-3"
         style="fill:#ffffff;fill-opacity:0.37724552;fill-rule:nonzero;stroke:none"
         sodipodi:type="arc" />
      <path
         transform="matrix(0.65281812,0,0,0.65281812,161.30788,3.0828907)"
         d="m 32.193159,112.83702 a 3.3802817,3.3802817 0 1 1 -6.760563,0 3.3802817,3.3802817 0 1 1 6.760563,0 z"
         sodipodi:ry="3.3802817"
         sodipodi:rx="3.3802817"
         sodipodi:cy="112.83702"
         sodipodi:cx="28.812878"
         id="path3802-6-2-2"
         style="fill:#ffffff;fill-opacity:0.37724552;fill-rule:nonzero;stroke:none"
         sodipodi:type="arc" />
      <path
         transform="matrix(0.47022419,1.5025852,-1.5025852,0.47022419,409.5866,-30.511296)"
         d="m 32.193159,112.83702 a 3.3802817,3.3802817 0 1 1 -6.760563,0 3.3802817,3.3802817 0 1 1 6.760563,0 z"
         sodipodi:ry="3.3802817"
         sodipodi:rx="3.3802817"
         sodipodi:cy="112.83702"
         sodipodi:cx="28.812878"
         id="path3802-6-2-4-1-5"
         style="fill:#ffffff;fill-opacity:0.37724552;fill-rule:nonzero;stroke:none"
         sodipodi:type="arc" />
      <path
         transform="matrix(0.53903746,1.7224756,-1.7224756,0.53903746,313.00353,-31.429206)"
         d="m 32.193159,112.83702 a 3.3802817,3.3802817 0 1 1 -6.760563,0 3.3802817,3.3802817 0 1 1 6.760563,0 z"
         sodipodi:ry="3.3802817"
         sodipodi:rx="3.3802817"
         sodipodi:cy="112.83702"
         sodipodi:cx="28.812878"
         id="path3802-2-6"
         style="fill:#ffffff;fill-opacity:0.37724552;fill-rule:nonzero;stroke:none"
         sodipodi:type="arc" />
      <path
         transform="matrix(0.24084653,0.76961679,-0.76961679,0.24084653,199.99811,45.095589)"
         d="m 32.193159,112.83702 a 3.3802817,3.3802817 0 1 1 -6.760563,0 3.3802817,3.3802817 0 1 1 6.760563,0 z"
         sodipodi:ry="3.3802817"
         sodipodi:rx="3.3802817"
         sodipodi:cy="112.83702"
         sodipodi:cx="28.812878"
         id="path3802-6-5-13"
         style="fill:#ffffff;fill-opacity:0.37724552;fill-rule:nonzero;stroke:none"
         sodipodi:type="arc" />
      <path
         transform="matrix(3.1104863,0,0,3.1104863,38.04219,-261.71221)"
         d="m 32.193159,112.83702 a 3.3802817,3.3802817 0 1 1 -6.760563,0 3.3802817,3.3802817 0 1 1 6.760563,0 z"
         sodipodi:ry="3.3802817"
         sodipodi:rx="3.3802817"
         sodipodi:cy="112.83702"
         sodipodi:cx="28.812878"
         id="path3802-8-8"
         style="fill:#ffffff;fill-opacity:0.37724552;fill-rule:nonzero;stroke:none"
         sodipodi:type="arc" />
      <path
         transform="matrix(-1.4136464,1.1220907,-1.1220907,-1.4136464,488.47041,224.37215)"
         d="m 32.193159,112.83702 a 3.3802817,3.3802817 0 1 1 -6.760563,0 3.3802817,3.3802817 0 1 1 6.760563,0 z"
         sodipodi:ry="3.3802817"
         sodipodi:rx="3.3802817"
         sodipodi:cy="112.83702"
         sodipodi:cx="28.812878"
         id="path3802-2-4-7"
         style="fill:#ffffff;fill-opacity:0.37724552;fill-rule:nonzero;stroke:none"
         sodipodi:type="arc" />
      <path
         transform="matrix(0.74540382,2.0779092,-2.3819122,0.65026806,585.73844,-52.433633)"
         d="m 32.193159,112.83702 a 3.3802817,3.3802817 0 1 1 -6.760563,0 3.3802817,3.3802817 0 1 1 6.760563,0 z"
         sodipodi:ry="3.3802817"
         sodipodi:rx="3.3802817"
         sodipodi:cy="112.83702"
         sodipodi:cx="28.812878"
         id="path3802-6-2-4-1-8-7"
         style="fill:#ffffff;fill-opacity:0.37724552;fill-rule:nonzero;stroke:none"
         sodipodi:type="arc" />
      <path
         transform="matrix(0.65281812,0,0,0.65281812,326.38817,2.7357467)"
         d="m 32.193159,112.83702 a 3.3802817,3.3802817 0 1 1 -6.760563,0 3.3802817,3.3802817 0 1 1 6.760563,0 z"
         sodipodi:ry="3.3802817"
         sodipodi:rx="3.3802817"
         sodipodi:cy="112.83702"
         sodipodi:cx="28.812878"
         id="path3802-6-2-8-4"
         style="fill:#ffffff;fill-opacity:0.37724552;fill-rule:nonzero;stroke:none"
         sodipodi:type="arc" />
      <path
         transform="matrix(1.4976416,0,0,1.4976416,290.88301,-84.024395)"
         d="m 32.193159,112.83702 a 3.3802817,3.3802817 0 1 1 -6.760563,0 3.3802817,3.3802817 0 1 1 6.760563,0 z"
         sodipodi:ry="3.3802817"
         sodipodi:rx="3.3802817"
         sodipodi:cy="112.83702"
         sodipodi:cx="28.812878"
         id="path3802-6-2-8-2-4"
         style="fill:#ffffff;fill-opacity:0.37724552;fill-rule:nonzero;stroke:none"
         sodipodi:type="arc" />
    </g>
    <g
       id="g4452"
       style="fill:#9bb1ef;fill-opacity:1">
      <text
         sodipodi:linespacing="125%"
         id="text3949"
         y="64.231773"
         x="126.64671"
         style="font-size:9.00644684000000062px;font-style:normal;font-variant:normal;font-weight:normal;font-stretch:normal;line-height:125%;letter-spacing:0px;word-spacing:0px;fill:#9bb1ef;fill-opacity:1;stroke:none;font-family:Monospace;-inkscape-font-specification:Monospace"
         xml:space="preserve"><tspan
           y="64.231773"
           x="126.64671"
           id="tspan3951"
           sodipodi:role="line">a</tspan></text>
      <text
         sodipodi:linespacing="125%"
         id="text3949-3"
         y="70.994209"
         x="289.25461"
         style="font-size:16.70851326000000014px;font-style:normal;font-variant:normal;font-weight:normal;font-stretch:normal;line-height:125%;letter-spacing:0px;word-spacing:0px;fill:#9bb1ef;fill-opacity:1;stroke:none;font-family:Monospace;-inkscape-font-specification:Monospace"
         xml:space="preserve"><tspan
           y="70.994209"
           x="289.25461"
           id="tspan3951-6"
           sodipodi:role="line">đ</tspan></text>
      <text
         sodipodi:linespacing="125%"
         id="text3949-3-5"
         y="82.47612"
         x="143.69577"
         style="font-size:9.18463898000000079px;font-style:normal;font-variant:normal;font-weight:normal;font-stretch:normal;line-height:125%;letter-spacing:0px;word-spacing:0px;fill:#9bb1ef;fill-opacity:1;stroke:none;font-family:Monospace;-inkscape-font-specification:Monospace"
         xml:space="preserve"><tspan
           y="82.47612"
           x="143.69577"
           id="tspan3951-6-0"
           sodipodi:role="line">¢</tspan></text>
      <text
         sodipodi:linespacing="125%"
         id="text3949-5"
         y="65.701141"
         x="119.15993"
         style="font-size:9.00644684000000062px;font-style:normal;font-variant:normal;font-weight:normal;font-stretch:normal;line-height:125%;letter-spacing:0px;word-spacing:0px;fill:#9bb1ef;fill-opacity:1;stroke:none;font-family:Monospace;-inkscape-font-specification:Monospace"
         xml:space="preserve"><tspan
           y="65.701141"
           x="119.15993"
           id="tspan3951-5"
           sodipodi:role="line">ŋ</tspan></text>
      <text
         sodipodi:linespacing="125%"
         id="text3949-5-4"
         y="58.424263"
         x="121.67884"
         style="font-size:9.00644684000000062px;font-style:normal;font-variant:normal;font-weight:normal;font-stretch:normal;line-height:125%;letter-spacing:0px;word-spacing:0px;fill:#9bb1ef;fill-opacity:1;stroke:none;font-family:Monospace;-inkscape-font-specification:Monospace"
         xml:space="preserve"><tspan
           y="58.424263"
           x="121.67884"
           id="tspan3951-5-0"
           sodipodi:role="line">ł</tspan></text>
      <text
         sodipodi:linespacing="125%"
         id="text3949-3-5-6"
         y="79.25412"
         x="203.4816"
         style="font-size:9.18463898000000079px;font-style:normal;font-variant:normal;font-weight:normal;font-stretch:normal;line-height:125%;letter-spacing:0px;word-spacing:0px;fill:#9bb1ef;fill-opacity:1;stroke:none;font-family:Monospace;-inkscape-font-specification:Monospace"
         xml:space="preserve"><tspan
           y="79.25412"
           x="203.4816"
           id="tspan3951-6-0-8"
           sodipodi:role="line">ø</tspan></text>
      <text
         sodipodi:linespacing="125%"
         id="text3949-3-5-6-9"
         y="75.565613"
         x="209.59518"
         style="font-size:11.95357513000000083px;font-style:normal;font-variant:normal;font-weight:normal;font-stretch:normal;line-height:125%;letter-spacing:0px;word-spacing:0px;fill:#9bb1ef;fill-opacity:1;stroke:none;font-family:Monospace;-inkscape-font-specification:Monospace"
         xml:space="preserve"><tspan
           y="75.565613"
           x="209.59518"
           id="tspan3951-6-0-8-5"
           sodipodi:role="line">þ</tspan></text>
      <text
         sodipodi:linespacing="125%"
         id="text3949-3-5-6-7"
         y="68.862885"
         x="251.10959"
         style="font-size:9.18463898000000079px;font-style:normal;font-variant:normal;font-weight:normal;font-stretch:normal;line-height:125%;letter-spacing:0px;word-spacing:0px;fill:#9bb1ef;fill-opacity:1;stroke:none;font-family:Monospace;-inkscape-font-specification:Monospace"
         xml:space="preserve"><tspan
           y="68.862885"
           x="251.10959"
           id="tspan3951-6-0-8-9"
           sodipodi:role="line">e</tspan></text>
      <text
         sodipodi:linespacing="125%"
         id="text3949-3-2"
         y="95.322273"
         x="121.8027"
         style="font-size:16.70851326000000014px;font-style:normal;font-variant:normal;font-weight:normal;font-stretch:normal;line-height:125%;letter-spacing:0px;word-spacing:0px;fill:#9bb1ef;fill-opacity:1;stroke:none;font-family:Monospace;-inkscape-font-specification:Monospace"
         xml:space="preserve"><tspan
           y="95.322273"
           x="121.8027"
           id="tspan3951-6-08"
           sodipodi:role="line">đ</tspan></text>
      <text
         sodipodi:linespacing="125%"
         id="text3949-3-5-6-2"
         y="87.73381"
         x="330.65842"
         style="font-size:9.18463898000000079px;font-style:normal;font-variant:normal;font-weight:normal;font-stretch:normal;line-height:125%;letter-spacing:0px;word-spacing:0px;fill:#9bb1ef;fill-opacity:1;stroke:none;font-family:Monospace;-inkscape-font-specification:Monospace"
         xml:space="preserve"><tspan
           y="87.73381"
           x="330.65842"
           id="tspan3951-6-0-8-1"
           sodipodi:role="line">ø</tspan></text>
      <text
         sodipodi:linespacing="125%"
         id="text3949-3-5-6-9-6"
         y="84.045303"
         x="336.772"
         style="font-size:11.95357513000000083px;font-style:normal;font-variant:normal;font-weight:normal;font-stretch:normal;line-height:125%;letter-spacing:0px;word-spacing:0px;fill:#9bb1ef;fill-opacity:1;stroke:none;font-family:Monospace;-inkscape-font-specification:Monospace"
         xml:space="preserve"><tspan
           y="84.045303"
           x="336.772"
           id="tspan3951-6-0-8-5-9"
           sodipodi:role="line">þ</tspan></text>
    </g>
  </g>
</svg>
