<?xml version="1.0" encoding="UTF-8" standalone="no"?>
<!-- Created with Inkscape (http://www.inkscape.org/) -->

<svg
   xmlns:dc="http://purl.org/dc/elements/1.1/"
   xmlns:cc="http://creativecommons.org/ns#"
   xmlns:rdf="http://www.w3.org/1999/02/22-rdf-syntax-ns#"
   xmlns:svg="http://www.w3.org/2000/svg"
   xmlns="http://www.w3.org/2000/svg"
   xmlns:sodipodi="http://sodipodi.sourceforge.net/DTD/sodipodi-0.dtd"
   xmlns:inkscape="http://www.inkscape.org/namespaces/inkscape"
   width="300.95935"
   height="288.58563"
   id="svg2"
   version="1.1"
   inkscape:version="0.48.3.1 r9886"
   sodipodi:docname="murcielago.svg">
  <defs
     id="defs4" />
  <sodipodi:namedview
     id="base"
     pagecolor="#ffffff"
     bordercolor="#666666"
     borderopacity="1.0"
     inkscape:pageopacity="0.0"
     inkscape:pageshadow="2"
     inkscape:zoom="0.74971557"
     inkscape:cx="361.7809"
     inkscape:cy="-44.136986"
     inkscape:document-units="px"
     inkscape:current-layer="layer1"
     showgrid="false"
     fit-margin-top="0"
     fit-margin-left="0"
     fit-margin-right="0"
     fit-margin-bottom="0"
     inkscape:window-width="1280"
     inkscape:window-height="748"
     inkscape:window-x="0"
     inkscape:window-y="31"
     inkscape:window-maximized="1" />
  <metadata
     id="metadata7">
    <rdf:RDF>
      <cc:Work
         rdf:about="">
        <dc:format>image/svg+xml</dc:format>
        <dc:type
           rdf:resource="http://purl.org/dc/dcmitype/StillImage" />
        <dc:title />
      </cc:Work>
    </rdf:RDF>
  </metadata>
  <g
     inkscape:label="Layer 1"
     inkscape:groupmode="layer"
     id="layer1"
     transform="translate(-227.56511,-138.02613)">
    <path
       style="font-size:medium;font-style:normal;font-variant:normal;font-weight:normal;font-stretch:normal;text-indent:0;text-align:start;text-decoration:none;line-height:normal;letter-spacing:normal;word-spacing:normal;text-transform:none;direction:ltr;block-progression:tb;writing-mode:lr-tb;text-anchor:start;baseline-shift:baseline;color:#000000;fill:#828282;fill-opacity:0.34682086;stroke:none;stroke-width:50;marker:none;visibility:visible;display:inline;overflow:visible;enable-background:accumulate;font-family:Sans;-inkscape-font-specification:Sans"
       d="m 286.58063,138.04083 a 19.367457,19.367457 0 0 0 -11.52248,4.40565 c -2.02743,1.6693 -3.73777,3.23165 -5.5918,4.84138 -3.79941,-2.20458 -9.24222,-4.57245 -16.46069,-5.78545 a 19.367457,19.367457 0 0 0 -11.37724,36.74608 c -2.78968,4.59163 -5.02363,9.15661 -6.17276,14.47572 -1.29718,6.00437 -1.23182,13.94202 3.34055,21.01159 2.52683,3.90686 6.14841,6.65148 9.92483,8.54504 -2.36101,3.09441 -4.59909,6.14558 -6.6569,9.10179 -3.85994,5.54514 -7.09755,10.66178 -9.63434,15.71028 -1.2684,2.52425 -2.38605,5.00536 -3.29214,8.10931 -0.90609,3.10396 -2.46974,6.86275 -0.19366,14.25787 1.13804,3.69756 4.0619,8.35698 8.23035,11.18359 4.16844,2.8266 8.6328,3.60778 11.83717,3.63103 1.16274,0.008 2.11183,-0.0982 3.07428,-0.19365 -7.70835,9.14288 -14.66759,18.07684 -20.3338,26.62759 a 19.367457,19.367457 0 0 0 25.75614,27.52324 c 8.36949,-4.7826 16.17767,-9.16155 23.60173,-13.24117 -7.19692,7.23278 -15.55035,15.13106 -23.74697,23.23862 -9.78768,9.68134 -18.93386,18.68086 -25.10255,30.33125 -3.08435,5.82519 -6.17671,13.37394 -3.92152,23.14179 2.25519,9.76786 11.05598,17.29743 18.76035,20.23697 a 19.367457,19.367457 0 0 0 21.85883,-5.78545 c 11.97337,-14.54741 26.24129,-30.17477 41.10331,-46.04152 -2.45514,5.25685 -4.50132,10.31775 -5.47076,16.5091 -0.9811,6.26595 -0.7474,15.94014 6.43904,23.60173 a 19.367457,19.367457 0 0 0 23.166,3.87311 c 11.08222,-5.862 21.39932,-13.41218 31.17849,-21.97987 -1.30863,3.19641 -2.48791,6.33654 -3.43738,9.39228 a 19.367457,19.367457 0 0 0 19.87387,25.05414 c 19.3246,-1.40062 33.32092,-13.27773 45.29111,-26.36131 1.56718,5.77053 4.27187,11.2883 8.56924,16.04917 a 19.367457,19.367457 0 0 0 26.19186,2.39648 19.367457,19.367457 0 0 0 4.93821,3.63104 c 11.16469,5.6996 17.2739,2.21604 21.81042,0.87145 2.24669,-0.66591 3.50686,-1.20335 5.2771,-1.86393 a 19.367457,19.367457 0 0 0 28.3947,-14.33049 c 0.62659,-4.04905 1.03169,-9.89522 -2.90483,-16.38807 -1.58461,-2.61363 -3.88098,-4.59353 -6.29379,-6.22117 2.46459,-4.02906 4.75057,-7.90111 6.63269,-11.40145 3.13544,-5.83126 5.48325,-10.76743 7.11682,-15.97656 0.8168,-2.60456 1.5428,-5.23247 1.67028,-9.07759 0.12748,-3.84511 -0.16997,-10.57825 -6.46324,-16.70276 -5.01828,-4.8837 -11.68489,-5.96426 -16.4849,-5.71283 0.79186,-1.01259 1.6479,-2.04112 2.42069,-3.05006 8.32815,-10.87305 16.11205,-20.47179 18.9298,-34.83373 a 19.367457,19.367457 0 0 0 -18.05835,-23.06918 c -6.15798,-0.29719 -11.78209,0.74034 -17.01745,2.56593 8.03173,-12.24613 15.33874,-23.93294 20.62428,-34.05911 0.16786,-0.3216 0.39246,-0.67358 0.55675,-0.99248 l -0.0242,-0.0242 c 3.11962,-5.3868 5.49401,-10.30265 6.87476,-15.73448 1.46976,-5.78203 2.29503,-13.3844 -2.32387,-21.22945 -4.61889,-7.84505 -13.94204,-11.4475 -20.0191,-11.78876 -1.28882,-0.0724 -2.49176,-0.037 -3.65524,0.0242 3.57368,-4.43684 7.00651,-9.02001 10.21531,-13.77372 A 19.367457,19.367457 0 0 0 478.7108,141.69607 c -9.55676,5.24485 -18.11018,11.7789 -26.14346,18.88138 A 19.367457,19.367457 0 0 0 425.4072,148.42559 c -2.21183,1.08561 -4.26862,2.3301 -6.39062,3.51 a 19.367457,19.367457 0 0 0 -1.11352,-2.106 c -2.70235,-4.35565 -7.54132,-7.63167 -11.42565,-8.85973 -3.88434,-1.22805 -6.82458,-1.12221 -9.1018,-0.89565 -4.55443,0.45311 -7.16952,1.57927 -9.828,2.71117 -5.31696,2.2638 -10.27727,5.23149 -16.07338,8.93235 -5.1053,3.25977 -10.86173,7.25537 -16.79959,11.47407 0.32869,-2.71746 0.27026,-6.02777 -1.16193,-9.97325 -1.98492,-5.46818 -7.67891,-10.81862 -12.66021,-12.636 -9.9626,-3.63474 -14.67389,-0.70812 -19.05083,1.0409 -4.37694,1.74901 -8.35354,4.05463 -12.80545,7.06841 -1.0619,0.71887 -2.23227,1.61816 -3.34055,2.42069 a 19.367457,19.367457 0 0 0 -19.07504,-13.07172 z"
       id="path3393"
       inkscape:connector-curvature="0" />
    <text
       x="368.60202"
       y="287.4072"
       id="text2985-7"
       xml:space="preserve"
       style="font-size:18.59269142px;font-style:italic;font-variant:normal;font-weight:bold;font-stretch:normal;line-height:125%;letter-spacing:0px;word-spacing:0px;fill:#ffffff;fill-opacity:1;stroke:none;font-family:MarVoSym;-inkscape-font-specification:MarVoSym Bold Italic"
       sodipodi:linespacing="125%" />
    <text
       xml:space="preserve"
       style="font-size:84.15487671px;font-style:normal;font-variant:normal;font-weight:normal;font-stretch:normal;line-height:100%;letter-spacing:0px;word-spacing:0px;fill:#000000;fill-opacity:1;stroke:none;font-family:Monospace;-inkscape-font-specification:Monospace"
       x="362.83176"
       y="-123.33923"
       id="text3124"
       sodipodi:linespacing="100%"
       transform="matrix(0.7470439,0.66477471,-0.66477471,0.7470439,0,0)"><tspan
         sodipodi:role="line"
         x="362.83176"
         y="-123.33923"
         style="font-size:37.86969376px;font-style:normal;font-variant:normal;font-weight:bold;font-stretch:normal;line-height:100%;fill:#000000;fill-opacity:1;stroke:none;font-family:Droid Sans Mono;-inkscape-font-specification:Droid Sans Mono Bold"
         id="tspan3128">   A_A</tspan><tspan
         sodipodi:role="line"
         x="362.83176"
         y="-85.469536"
         style="font-size:37.86969376px;font-style:normal;font-variant:normal;font-weight:bold;font-stretch:normal;line-height:100%;fill:#000000;fill-opacity:1;stroke:none;font-family:Droid Sans Mono;-inkscape-font-specification:Droid Sans Mono Bold"
         id="tspan3132">__(o o)__</tspan><tspan
         sodipodi:role="line"
         x="362.83176"
         y="-47.599842"
         style="font-size:37.86969376px;font-style:normal;font-variant:normal;font-weight:bold;font-stretch:normal;line-height:100%;fill:#000000;fill-opacity:1;stroke:none;font-family:Droid Sans Mono;-inkscape-font-specification:Droid Sans Mono Bold"
         id="tspan3136">w  .&quot;.  w</tspan><tspan
         sodipodi:role="line"
         x="362.83176"
         y="-9.7301464"
         style="font-size:37.86969376px;font-style:normal;font-variant:normal;font-weight:bold;font-stretch:normal;line-height:100%;fill:#000000;fill-opacity:1;stroke:none;font-family:Droid Sans Mono;-inkscape-font-specification:Droid Sans Mono Bold"
         id="tspan3138"> \ |.| /</tspan><tspan
         sodipodi:role="line"
         x="362.83176"
         y="28.139547"
         style="font-size:37.86969376px;font-style:normal;font-variant:normal;font-weight:bold;font-stretch:normal;line-height:100%;fill:#000000;fill-opacity:1;stroke:none;font-family:Droid Sans Mono;-inkscape-font-specification:Droid Sans Mono Bold"
         id="tspan3134">  \W^W/</tspan></text>
  </g>
</svg>
